<svg xmlns="http://www.w3.org/2000/svg" viewBox="0 0 79.84 65.89"><defs><style>.cls-1{fill:#fff;}</style></defs><g id="Layer_2" data-name="Layer 2"><g id="Layer_1-2" data-name="Layer 1"><path class="cls-1" d="M0,33l2.66-1.79A189.74,189.74,0,0,0,17.92,19.88,114.43,114.43,0,0,0,27,11.49,84.83,84.83,0,0,0,36.35.16c.12-.18.2-.21.39-.08a121.29,121.29,0,0,0,15.88,10.1c4.57,2.48,9.25,4.74,13.95,6.93.68.31.69.35.37,1a64.74,64.74,0,0,1-8.22,13q-2.52,3.12-5.3,6a125.09,125.09,0,0,1-9.75,9c-1.35,1.13-2.74,2.22-4.09,3.34a2.16,2.16,0,0,1-1.91.49A10.47,10.47,0,0,1,36,49.36c-7.41-2.85-14.75-5.87-22-9.24-4.66-2.18-9.26-4.5-13.77-7Zm23.19-2.63a10.28,10.28,0,0,0,1.06,4.9,7.68,7.68,0,0,0,7.34,4.24,12.33,12.33,0,0,0,5.85-1.59,20.5,20.5,0,0,0,9.59-11,13.94,13.94,0,0,0,.85-7.51,8.45,8.45,0,0,0-2.21-4.5A7.67,7.67,0,0,0,40.3,12.5,12.47,12.47,0,0,0,33.88,14a20.37,20.37,0,0,0-8,7.7A17.21,17.21,0,0,0,23.19,30.35Z"/><path class="cls-1" d="M79.84,65.73a3.64,3.64,0,0,1-.44.14,3.17,3.17,0,0,1-.44,0H15.47a3.17,3.17,0,0,1-.68-.09c-.13,0-.18-.12-.11-.27.75-1.67,1.5-3.33,2.26-5,0-.06.12-.1.19-.13a.54.54,0,0,1,.18,0H77.12a.43.43,0,0,1,.47.31l2.08,4.65Z"/><path class="cls-1" d="M79.83,58.19l-.55.14a.74.74,0,0,1-.21,0H15.36a2.22,2.22,0,0,1-.51-.06c-.19,0-.24-.14-.15-.35.54-1.18,1.07-2.37,1.6-3.55.19-.42.39-.84.57-1.27.08-.19.17-.3.38-.26H77.1a.46.46,0,0,1,.5.32c.7,1.59,1.42,3.17,2.13,4.76C79.76,58,79.78,58.07,79.83,58.19Z"/><path class="cls-1" d="M68.88,18.69c.45,1,.88,2,1.32,2.92l9.51,21.16c.14.3.13.33-.18.41a1.58,1.58,0,0,1-.38,0H50l.2-.19c1.81-1.78,3.67-3.52,5.43-5.36A72.4,72.4,0,0,0,66.18,23.83c.91-1.59,1.72-3.25,2.57-4.88C68.79,18.87,68.83,18.8,68.88,18.69Z"/><path class="cls-1" d="M41.19,50.74l.75-.61,5.52-4.62a.86.86,0,0,1,.59-.23h29.1a.38.38,0,0,1,.42.27q1.07,2.41,2.15,4.81c.12.25.1.3-.16.37a1.82,1.82,0,0,1-.46.06H41.22Z"/><path class="cls-1" d="M33.81,50.79H15.41a3.43,3.43,0,0,1-.56-.07c-.2,0-.24-.15-.15-.35l1.76-3.89c.15-.35.3-.7.47-1a.33.33,0,0,1,.22-.15h3.24a.64.64,0,0,1,.27.07l13,5.3.2.09Z"/><path class="cls-1" d="M67.28,15.18c-5.34-2.47-10.59-5-15.76-7.93l.23,0H63a.67.67,0,0,1,.47.18,3.66,3.66,0,0,1,.74.93c1,2.23,2,4.47,3,6.71A.91.91,0,0,1,67.28,15.18Z"/><path class="cls-1" d="M39.63,14.54a6.28,6.28,0,0,1,4.12,1.28,6.15,6.15,0,0,1,2.2,3.9,12,12,0,0,1-.72,6.34,18.49,18.49,0,0,1-3.91,6.32,16.71,16.71,0,0,1-5.88,4.21,10.09,10.09,0,0,1-4.29.85,5.85,5.85,0,0,1-4.31-1.91,6.25,6.25,0,0,1-1.53-3.26A11.6,11.6,0,0,1,26,26,18.33,18.33,0,0,1,35.4,15.58,10.1,10.1,0,0,1,39.63,14.54Z"/></g></g></svg>