<svg xmlns="http://www.w3.org/2000/svg" viewBox="0 0 105.85 110.05"><defs><style>.cls-1{fill:#fff;}</style></defs><g id="Layer_2" data-name="Layer 2"><g id="Layer_1-2" data-name="Layer 1"><path class="cls-1" d="M78.08,20.08V4.61A4.61,4.61,0,0,0,73.46,0H4.62A4.61,4.61,0,0,0,0,4.61V105.43a4.62,4.62,0,0,0,4.62,4.62H73.46a4.62,4.62,0,0,0,4.62-4.62V93.08a39.53,39.53,0,0,1-20.93,11.28c-1.41.28-2.83.5-4.25.73H46.44a6,6,0,0,0-.8-.22A37.74,37.74,0,0,1,12.66,76c-.55-2.35-.84-4.77-1.25-7.17v-5c.32-1.94.56-3.9,1-5.83.22-1,.47-2,.76-3H9.08a4.61,4.61,0,0,1-4.62-4.61V9.2A4.62,4.62,0,0,1,9.08,4.58h60.4A4.62,4.62,0,0,1,74.1,9.2V24.06Z"/><path class="cls-1" d="M104.71,17.58q-3-3-6.07-6c-1.81-1.82-2.88-1.82-4.7,0Q86,19.47,78.08,27.4l-4,4L69,36.48a9.8,9.8,0,0,0-.87,1.1l-1.81-1a32.74,32.74,0,0,0-21.87-3.47C31.68,35.59,22.75,42.85,18.62,55c-.12.35-.24.71-.35,1.07C14.3,68.94,17,80.7,26.48,90.37c14.51,14.85,40,12,51.6-5.49l.39-.6c7.24-11.42,7.27-23.22.84-35.06a1.64,1.64,0,0,1,.35-2.38c8.38-8.31,16.7-16.67,25-25C106.23,20.31,106.24,19.13,104.71,17.58ZM49.56,88.82A22.24,22.24,0,0,1,27.35,66.24,22.69,22.69,0,0,1,30.26,55,22.62,22.62,0,0,1,72.58,66.13,23,23,0,0,1,49.56,88.82Z"/></g></g></svg>