<svg xmlns="http://www.w3.org/2000/svg" viewBox="0 0 28.3 23.36"><defs><style>.cls-1{fill:#fff;}</style></defs><g id="Layer_2" data-name="Layer 2"><g id="Layer_1-2" data-name="Layer 1"><path class="cls-1" d="M12,18H5.46l-.2,0c-.07,0-.08-.05,0-.13.21-.45.42-.91.62-1.37.06-.13.11-.25.17-.37a.1.1,0,0,1,.08-.06H7.23l.09,0L11.92,18,12,18Z"/><path class="cls-1" d="M19,12.52V9.32l-.47,0c-.6,0-1.2,0-1.81,0a2,2,0,0,1-.08.22,7.26,7.26,0,0,1-3.4,3.92A4.58,4.58,0,0,1,11.2,14a2.71,2.71,0,0,1-2.6-1.51,3.52,3.52,0,0,1-.38-1.73,6.1,6.1,0,0,1,.94-3A7.12,7.12,0,0,1,12,5a4.45,4.45,0,0,1,2.28-.55l.25,0a1.24,1.24,0,0,1,1.27-.73c1,0,2,0,3,0l-.2-.11A44.23,44.23,0,0,1,13,0c-.06,0-.1,0-.13,0a29.86,29.86,0,0,1-3.31,4,39.58,39.58,0,0,1-3.23,3C4.62,8.49,2.8,9.8.94,11.06L0,11.69l.08.05Q2.48,13.06,5,14.22c2.56,1.19,5.16,2.27,7.78,3.28a6.21,6.21,0,0,0,.61.2.82.82,0,0,0,.68-.18l1.45-1.18a43.16,43.16,0,0,0,3.45-3.18l.16-.17A1.73,1.73,0,0,1,19,12.52Z"/><path class="cls-1" d="M28.3,23.3l-.15.05H5.48a2,2,0,0,1-.24,0s-.06,0,0-.1c.27-.59.54-1.18.8-1.77,0,0,0,0,.07-.05s0,0,.07,0h21.2a.14.14,0,0,1,.16.11l.74,1.64A1,1,0,0,1,28.3,23.3Z"/><path class="cls-1" d="M28.3,20.63l-.2.05H5.45l-.19,0c-.07,0-.08-.05,0-.13l.57-1.26c.07-.15.14-.3.2-.45s.06-.1.13-.09H27.33a.17.17,0,0,1,.18.11c.24.57.5,1.13.75,1.69Z"/><path class="cls-1" d="M28.19,15.31H17.73l.08-.06c.55-.55,1.12-1.09,1.66-1.64a1.48,1.48,0,0,0,.92.27H23.2a1.25,1.25,0,0,0,1.4-1.38c0-.91,0-1.81,0-2.72,0-.15,0-.3,0-.5h1q1.34,2.94,2.65,5.87C28.3,15.27,28.3,15.28,28.19,15.31Z"/><path class="cls-1" d="M14.6,18l.27-.22,2-1.64a.34.34,0,0,1,.21-.08H27.35a.15.15,0,0,1,.15.1c.25.57.5,1.13.76,1.7,0,.09,0,.11-.06.13A.44.44,0,0,1,28,18H14.6Z"/><path class="cls-1" d="M23.58,4.76h0v0Z"/><path class="cls-1" d="M15.8,9.29H16a6.62,6.62,0,0,1-1.36,2.19A5.9,5.9,0,0,1,12.56,13a3.62,3.62,0,0,1-1.52.3,2.1,2.1,0,0,1-1.53-.67A2.35,2.35,0,0,1,9,11.44a4.14,4.14,0,0,1,.25-2.23,6.45,6.45,0,0,1,3.33-3.69,3.59,3.59,0,0,1,1.5-.36h.36q0,1.38,0,2.76A1.26,1.26,0,0,0,15.8,9.29Z"/><path d="M23.56,4.71v0h0Zm0,3.53v0s0,0,0,0Z"/><path class="cls-1" d="M28.16,7.81c0,.33-.13.44-.45.44H23.56V8.7c0,1.22,0,2.44,0,3.66,0,.37-.12.49-.49.48-.82,0-1.65,0-2.47,0a.6.6,0,0,1-.35-.05c-.14-.07-.19-.21-.19-.47s0-.26,0-.4h0c0-1.06,0-2.12,0-3.17V8.24H16c-.4,0-.53-.13-.51-.52,0-.71,0-1.44,0-2.16,0-.11,0-.23,0-.34s0-.35.17-.41a.53.53,0,0,1,.31-.06h4.13V3.55c0-.33,0-.66,0-1,0-.63,0-1.26,0-1.9,0-.36.1-.51.48-.51.84,0,1.67,0,2.51,0,.4,0,.51.16.5.54,0,1.2,0,2.41,0,3.61v.46h4.15c.33,0,.45.12.45.45C28.14,6.08,28.14,6.94,28.16,7.81Z"/></g></g></svg>