<svg xmlns="http://www.w3.org/2000/svg" viewBox="0 0 28.91 24.06"><defs><style>.cls-1{fill:#fff;}</style></defs><g id="Layer_2" data-name="Layer 2"><g id="Layer_1-2" data-name="Layer 1"><path class="cls-1" d="M17.6,10.77a6.22,6.22,0,0,1-.73-1.15,6.17,6.17,0,0,1-.19.61,7.28,7.28,0,0,1-3.4,3.91,4.35,4.35,0,0,1-2.08.56,2.71,2.71,0,0,1-2.6-1.5,3.68,3.68,0,0,1-.38-1.74,6,6,0,0,1,.95-3.05A7.12,7.12,0,0,1,12,5.68a4.51,4.51,0,0,1,2.27-.55,3,3,0,0,1,1.38.41V5.47c.21-.68.37-1.37.63-2,.05-.13.11-.27.17-.39A35.72,35.72,0,0,1,13,.73c-.07,0-.1,0-.14,0a31.08,31.08,0,0,1-3.3,4,43,43,0,0,1-3.23,3C4.62,9.19,2.8,10.5,1,11.76L0,12.39l.09,0c1.6.89,3.23,1.71,4.88,2.48,2.55,1.2,5.15,2.27,7.78,3.28a3.35,3.35,0,0,0,.61.2.78.78,0,0,0,.68-.17L15.49,17a43.16,43.16,0,0,0,3.45-3.18c.38-.39.75-.78,1.1-1.19A6.79,6.79,0,0,1,17.6,10.77Z"/><path class="cls-1" d="M28.31,24l-.16.05H5.49a1,1,0,0,1-.24,0s-.07,0,0-.1L6,22.16a.13.13,0,0,1,.07-.05H27.34a.16.16,0,0,1,.17.11c.24.55.49,1.1.74,1.65A.49.49,0,0,0,28.31,24Z"/><path class="cls-1" d="M28.3,21.33l-.19.05a.22.22,0,0,1-.08,0H5.45l-.18,0c-.07,0-.09-.05,0-.12.19-.42.38-.84.56-1.26L6,19.53c0-.07.06-.11.13-.09H27.34a.16.16,0,0,1,.17.12c.25.56.5,1.12.76,1.68Z"/><path class="cls-1" d="M28.2,16l-.14,0H17.74l.07-.07c.64-.63,1.3-1.25,1.92-1.9.35-.37.69-.74,1-1.12a7.06,7.06,0,0,0,4.21-.1,7.77,7.77,0,0,0,1.63-.7l1.67,3.72C28.31,16,28.31,16,28.2,16Z"/><path class="cls-1" d="M14.61,18.69l.26-.22,2-1.63a.27.27,0,0,1,.21-.09H27.35a.13.13,0,0,1,.15.09c.25.57.51,1.14.76,1.7,0,.09,0,.11-.05.14l-.17,0H14.62Z"/><path class="cls-1" d="M12,18.71H5.47a1.2,1.2,0,0,1-.2,0c-.07,0-.09-.05,0-.12l.62-1.38c0-.12.11-.25.17-.37a.11.11,0,0,1,.08,0H7.23l.1,0,4.59,1.88.07,0Z"/><path class="cls-1" d="M16.34,8.47A4.75,4.75,0,0,1,16,9.94a6.5,6.5,0,0,1-1.39,2.24,5.86,5.86,0,0,1-2.08,1.49,3.36,3.36,0,0,1-1.52.3,2,2,0,0,1-1.53-.67A2.19,2.19,0,0,1,9,12.14a4.09,4.09,0,0,1,.24-2.22,6.52,6.52,0,0,1,3.33-3.69,3.46,3.46,0,0,1,1.5-.37,2.21,2.21,0,0,1,1.46.45.81.81,0,0,1,.16.16v.44C15.91,7.41,16.13,7.94,16.34,8.47Z"/><path class="cls-1" d="M28.91,6.07a6.08,6.08,0,0,1-2.76,5.09,6,6,0,0,1-4.63.84,4.71,4.71,0,0,1-.73-.22,6,6,0,0,1-4-5.67,6.06,6.06,0,0,1,.54-2.52A6,6,0,0,1,22.89,0,6.16,6.16,0,0,1,28.91,6.07Z"/></g></g></svg>