<svg xmlns="http://www.w3.org/2000/svg" viewBox="0 0 79.84 65.89"><defs><style>.cls-1{fill:#fff;}</style></defs><g id="Layer_2" data-name="Layer 2"><g id="Layer_1-2" data-name="Layer 1"><path class="cls-1" d="M53.69,35.31v-9c-.48,0-.9-.08-1.32-.08H47.26c-.07.22-.15.43-.23.64a20.47,20.47,0,0,1-9.6,11,12.37,12.37,0,0,1-5.84,1.58,7.66,7.66,0,0,1-7.34-4.24,10,10,0,0,1-1.06-4.89,17.18,17.18,0,0,1,2.65-8.61,20.17,20.17,0,0,1,8-7.7,12.58,12.58,0,0,1,6.42-1.55,5.51,5.51,0,0,1,.71.07,3.54,3.54,0,0,1,3.58-2.08h8.59l-.56-.3A122.85,122.85,0,0,1,36.73.08c-.18-.14-.27-.1-.38.07A85.56,85.56,0,0,1,27,11.49a118.32,118.32,0,0,1-9.11,8.39C13,23.94,7.89,27.64,2.66,31.19L0,33l.23.14c4.51,2.5,9.11,4.82,13.77,7,7.2,3.37,14.54,6.4,22,9.25a11.78,11.78,0,0,0,1.71.56,2.23,2.23,0,0,0,1.92-.49c1.35-1.13,2.74-2.22,4.09-3.34a123.3,123.3,0,0,0,9.74-9l.44-.46A5.08,5.08,0,0,1,53.69,35.31Z"/><path class="cls-1" d="M79.84,65.73a4,4,0,0,1-.44.13,2.12,2.12,0,0,1-.44,0H15.46a3.08,3.08,0,0,1-.67-.09c-.14,0-.18-.12-.11-.27l2.25-5a.38.38,0,0,1,.19-.13.61.61,0,0,1,.19,0H77.12a.43.43,0,0,1,.47.31c.68,1.55,1.38,3.1,2.08,4.65Z"/><path class="cls-1" d="M79.83,58.19l-.56.14a1.47,1.47,0,0,1-.21,0H15.36a3,3,0,0,1-.51-.06c-.2,0-.24-.14-.15-.35.54-1.18,1.07-2.37,1.6-3.55.19-.42.39-.84.57-1.27.08-.19.17-.3.38-.26H77.1a.44.44,0,0,1,.49.31c.71,1.6,1.42,3.18,2.14,4.77C79.76,58,79.78,58.06,79.83,58.19Z"/><path class="cls-1" d="M79.52,43.18a1.5,1.5,0,0,1-.37,0H50l.2-.19c1.56-1.55,3.16-3.05,4.69-4.62a4.17,4.17,0,0,0,2.6.77h7.92c2.54,0,3.93-1.34,4-3.89s0-5.12,0-7.68c0-.43,0-.85.06-1.4h2.77Q76,34.49,79.71,42.76C79.84,43.07,79.83,43.1,79.52,43.18Z"/><path class="cls-1" d="M41.19,50.74l.75-.61,5.52-4.62a.86.86,0,0,1,.59-.23h29.1a.39.39,0,0,1,.42.27c.71,1.61,1.43,3.2,2.15,4.8.11.26.1.31-.16.38a1.82,1.82,0,0,1-.46.06H41.22Z"/><path class="cls-1" d="M66.52,13.42h-.07v-.15Z"/><path class="cls-1" d="M44.57,26.21h.6a18.72,18.72,0,0,1-3.85,6.17,16.81,16.81,0,0,1-5.88,4.2,10,10,0,0,1-4.3.85,5.89,5.89,0,0,1-4.31-1.9,6.45,6.45,0,0,1-1.53-3.26A11.74,11.74,0,0,1,26,26a18.26,18.26,0,0,1,9.38-10.4,9.88,9.88,0,0,1,4.24-1,8.67,8.67,0,0,1,1,.05c0,2.58,0,5.18,0,7.77A3.54,3.54,0,0,0,44.57,26.21Z"/><path d="M66.45,13.27v.15h.07Zm0,10v.1l0-.1Z"/><path class="cls-1" d="M79.43,22c0,.95-.35,1.24-1.27,1.24-2.4,0-4.8,0-7.24,0H66.45v1.3c0,3.44,0,6.88,0,10.32,0,1.06-.35,1.39-1.39,1.36-2.32-.06-4.64-.07-7,0a1.88,1.88,0,0,1-1-.15c-.39-.19-.54-.6-.53-1.33,0-.38,0-.74,0-1.12h0c0-3,0-6,0-8.95V23.24c-3,0-5.84,0-8.68,0-.66,0-1.32,0-2,0H45c-1.12,0-1.47-.35-1.44-1.45.06-2,.06-4.06,0-6.09,0-.33,0-.65,0-1,0-.62.14-1,.47-1.16a1.68,1.68,0,0,1,.88-.17c3.4,0,6.8,0,10.2,0h1.47V10c0-.93,0-1.85,0-2.78,0-1.79,0-3.57,0-5.36,0-1,.28-1.45,1.36-1.43,2.36.06,4.72.07,7.08,0,1.13,0,1.43.43,1.42,1.5,0,3.4,0,6.8,0,10.2v1.29h7.41c1.44,0,2.88,0,4.32,0,.93,0,1.27.36,1.25,1.29C79.39,17.14,79.38,19.58,79.43,22Z"/></g></g></svg>