<svg xmlns="http://www.w3.org/2000/svg" viewBox="0 0 26.72 20.38"><defs><style>.cls-1{fill:#fff;}</style></defs><g id="Layer_2" data-name="Layer 2"><g id="Layer_1-2" data-name="Layer 1"><path class="cls-1" d="M13.6,0H.85A.85.85,0,0,0,0,.85V19.52a.86.86,0,0,0,.85.86H13.6a.87.87,0,0,0,.86-.86V.85A.86.86,0,0,0,13.6,0Zm.12,9.33a.85.85,0,0,1-.86.86H1.68a.85.85,0,0,1-.85-.86V1.7A.85.85,0,0,1,1.68.85H12.86a.85.85,0,0,1,.86.85Z"/><path class="cls-1" d="M26.53,10.46c-.45.68-8.55,8.7-9.61,9.75a.46.46,0,0,1-.62-.08.85.85,0,0,1-.19-.61V.85a.87.87,0,0,1,.19-.6A.46.46,0,0,1,17,.2l9.51,9.17a.72.72,0,0,1,.25.5A1,1,0,0,1,26.53,10.46Z"/></g></g></svg>