<svg xmlns="http://www.w3.org/2000/svg" viewBox="0 0 164.46 134.27"><defs><style>.cls-1{fill:#fff;}</style></defs><g id="Layer_2" data-name="Layer 2"><g id="Layer_1-2" data-name="Layer 1"><path class="cls-1" d="M90.14,65.27a41.19,41.19,0,0,1-13.86,12,24.93,24.93,0,0,1-11.91,3.23c-6.49,0-11.69-2.52-15-8.64a20.87,20.87,0,0,1-2.16-10A35.1,35.1,0,0,1,52.66,44.3,41.36,41.36,0,0,1,69,28.61a31.42,31.42,0,0,1,4.32-1.86A36.46,36.46,0,0,1,84,6.72Q79.36,3.57,74.86.17c-.37-.28-.55-.2-.79.15a173.08,173.08,0,0,1-19,23.1A234.18,234.18,0,0,1,36.51,40.51c-10,8.29-20.42,15.83-31.09,23.05L0,67.2l.48.28c9.19,5.1,18.55,9.83,28,14.27,14.69,6.87,29.64,13,44.73,18.84a21.29,21.29,0,0,0,3.5,1.13,4.46,4.46,0,0,0,3.91-1c2.75-2.3,5.57-4.51,8.33-6.81a254,254,0,0,0,19.86-18.28c1.41-1.46,2.8-2.94,4.15-4.44A37,37,0,0,1,90.14,65.27Z"/><path class="cls-1" d="M162.69,133.94a6.16,6.16,0,0,1-.89.27,4.49,4.49,0,0,1-.9.06H31.51a7,7,0,0,1-1.36-.17c-.29-.06-.38-.25-.23-.56,1.53-3.4,3-6.79,4.59-10.19a.81.81,0,0,1,.39-.27,1.21,1.21,0,0,1,.38,0q60.93,0,121.87,0a.9.9,0,0,1,1,.63c1.39,3.17,2.82,6.32,4.24,9.48Z"/><path class="cls-1" d="M162.68,118.58c-.41.1-.77.2-1.14.28a2,2,0,0,1-.43,0H31.31a5.18,5.18,0,0,1-1-.12c-.41-.08-.5-.29-.31-.71,1.1-2.41,2.18-4.83,3.27-7.24.38-.86.78-1.72,1.15-2.59.16-.38.35-.61.77-.52h122a.91.91,0,0,1,1,.65c1.43,3.24,2.89,6.46,4.34,9.7C162.53,118.16,162.58,118.32,162.68,118.58Z"/><path class="cls-1" d="M147.78,88.08H102l.4-.39c3.7-3.64,7.48-7.18,11.07-10.93q3.08-3.23,6-6.59A38.06,38.06,0,0,0,126,67.82a1.43,1.43,0,0,1,1.93.4C134.56,74.85,141.2,81.44,147.78,88.08Z"/><path class="cls-1" d="M162.12,103.37a3.67,3.67,0,0,1-.94.12H84l-.06-.11,1.54-1.24q5.63-4.71,11.24-9.42a1.74,1.74,0,0,1,1.2-.46q27.69,0,55.37,0h3.93a.79.79,0,0,1,.86.55c1.44,3.27,2.92,6.53,4.38,9.79C162.68,103.13,162.65,103.23,162.12,103.37Z"/><path class="cls-1" d="M86.83,62.86A39.23,39.23,0,0,1,84.2,66a34.13,34.13,0,0,1-12,8.56,20.3,20.3,0,0,1-8.74,1.74,12,12,0,0,1-8.79-3.89,13,13,0,0,1-3.11-6.64A23.78,23.78,0,0,1,53,53c3.7-9.71,10-16.84,19.13-21.21l.65-.29v4.91c.23,1.37.44,2.74.71,4.1A38.11,38.11,0,0,0,86.83,62.86Z"/><path d="M153.28,92.27a7.8,7.8,0,0,0,.86.26h2.16a7.71,7.71,0,0,0,.89-.26Z"/><path class="cls-1" d="M163.15,76,152.74,65.6q-6.84-6.85-13.69-13.68a11.52,11.52,0,0,0-1.06-.84c.4-.75.67-1.24.93-1.74a35.14,35.14,0,0,0,3-7.8,30.51,30.51,0,0,0,.35-13.33c-2.43-12.7-9.79-21.47-22.16-25.29C108.29-.74,97.41,1.49,88.34,9.61c-.45.39-.9.81-1.34,1.24a30.42,30.42,0,0,0-8.35,14.72,31.71,31.71,0,0,0-.74,4.32A33.09,33.09,0,0,0,89.59,58.67,32.47,32.47,0,0,0,92.86,61l0,0c8.23,5.22,16.67,6.56,25.18,4.31a37.38,37.38,0,0,0,7.57-2.91l1.11-.59a1.59,1.59,0,0,1,2.3.34q12,12.13,24.16,24.19c1.47,1.47,2.61,1.48,4.1,0l3.31-3.31,2.54-2.55C164.9,78.79,164.9,77.76,163.15,76ZM110.41,55.37A21.51,21.51,0,0,1,97.1,50.73a22,22,0,0,1-3.44-3.32A22.3,22.3,0,0,1,88.5,33.14c0-.46,0-.91,0-1.35a20.62,20.62,0,0,1,.74-4.42,21.05,21.05,0,0,1,8.57-11.9,22.37,22.37,0,0,1,23.7-.74,21.63,21.63,0,0,1,10,13.61,21.26,21.26,0,0,1,.6,4.89c0,.1,0,.21,0,.31A21.74,21.74,0,0,1,110.41,55.37Z"/></g></g></svg>