<svg xmlns="http://www.w3.org/2000/svg" viewBox="0 0 341.29 63.34"><defs><style>.cls-1{fill:#fff;}</style></defs><g id="Layer_2" data-name="Layer 2"><g id="Layer_1-2" data-name="Layer 1"><path class="cls-1" d="M40.07,0H5.18A5.19,5.19,0,0,0,0,5.18v53a5.18,5.18,0,0,0,5.18,5.18H40.07a5.18,5.18,0,0,0,5.18-5.18v-53A5.18,5.18,0,0,0,40.07,0ZM29.79,44.4V25.71l-.3-.07c-2.67,6.89-5.35,13.78-8.15,21C18.43,39.58,15.64,32.8,12.86,26l-.2,0V44.37h-6c.14-.16.19-.29.27-.32C8.86,43.39,9.06,42,9,40.18,8.93,32.87,9,25.55,9,18.23c0-1.36-.28-2.29-1.56-2.82a7.85,7.85,0,0,1-1.08-.76H12.9c2.16,0,2.16,0,2.94,2l6.57,16.72c.13.31.28.62.51,1.16l1.47-3.74c1.94-5,3.9-10,5.79-15.09a1.38,1.38,0,0,1,1.58-1c2.22.06,4.44,0,6.69,0-.05.2-.05.31-.09.33-2,.75-2.25,2.3-2.22,4.26.12,7.28.09,14.56,0,21.84a2.37,2.37,0,0,0,1.5,2.62,10.56,10.56,0,0,1,1.09.7Z"/><path class="cls-1" d="M89.41,0H54.53a5.19,5.19,0,0,0-5.19,5.18v53a5.18,5.18,0,0,0,5.19,5.18H89.41a5.18,5.18,0,0,0,5.18-5.18v-53A5.18,5.18,0,0,0,89.41,0ZM83.62,24c-1.24-3.76-3-6.82-8-6.22v1.47c0,6.44.05,12.87,0,19.31,0,2.67.57,4.83,3.4,5.81H65.84a1.34,1.34,0,0,1-.07-.18c.92-.39,1.87-.73,2.76-1.19a1.32,1.32,0,0,0,.67-.92q0-12,0-24a1.53,1.53,0,0,0-.12-.34c-1.89-.23-3.81-.05-5.12,1.45a31.79,31.79,0,0,0-2.8,4.4V14.74H83.62Z"/><path class="cls-1" d="M138.75,0H103.87a5.17,5.17,0,0,0-5.18,5.18v53a5.17,5.17,0,0,0,5.18,5.18h34.88a5.18,5.18,0,0,0,5.18-5.18v-53A5.18,5.18,0,0,0,138.75,0Zm-5.43,44.92c-1.07-.54-2.08-1-3-1.54a1.82,1.82,0,0,0-2,0,13.84,13.84,0,0,1-15.89-2.26A13.21,13.21,0,0,1,109,34.36a19.49,19.49,0,0,1,.53-10.86,13.88,13.88,0,0,1,15-9.19,13.39,13.39,0,0,1,8.33,3.62l-5,6.64c0-1,0-1.81,0-2.58-.15-2-.87-3.81-2.93-4.55a5.61,5.61,0,0,0-6,1.12,9.3,9.3,0,0,0-2.78,5.21,26.94,26.94,0,0,0,.36,12.93c1.46,5.28,5.77,6.14,9.77,4.84.32-.11.79-.47.8-.71a56.35,56.35,0,0,0-.15-6.1,5.58,5.58,0,0,0-3.3-4.3c-.44-.23-.9-.44-1.65-.82h11.31Z"/><path class="cls-1" d="M188.09,0H153.21A5.17,5.17,0,0,0,148,5.18v53a5.18,5.18,0,0,0,5.18,5.18h34.88a5.18,5.18,0,0,0,5.18-5.18v-53A5.18,5.18,0,0,0,188.09,0Zm-5.37,45c-1.12-.56-2.17-1-3.16-1.59a1.71,1.71,0,0,0-1.87,0c-5.55,2.92-12.75,1.65-16.52-2.92-2.3-2.76-3.08-6.1-3.28-9.58a17.25,17.25,0,0,1,2.32-10.12c4.44-7.37,16.07-8.91,22-2.79-1.6,2.14-3.17,4.25-4.95,6.62,0-.92,0-1.53,0-2.13,0-2.18-.66-4.11-2.85-5a5.59,5.59,0,0,0-6.23,1.17,9.11,9.11,0,0,0-2.62,4.89,27.48,27.48,0,0,0,.23,12.94c1.51,5.64,5.88,6.31,9.86,5.08a1.1,1.1,0,0,0,.91-1.28c-.07-1.4,0-2.8,0-4.2a6.26,6.26,0,0,0-3.9-5.83,2.35,2.35,0,0,1-1-.72h11.07Z"/><path class="cls-1" d="M237.43,0H202.55a5.17,5.17,0,0,0-5.18,5.18v53a5.18,5.18,0,0,0,5.18,5.18h34.88a5.18,5.18,0,0,0,5.18-5.18v-53A5.18,5.18,0,0,0,237.43,0Zm-3,44.45c-2.55,0-5.1,0-7.65,0a1.1,1.1,0,0,1-.81-.51c-2.66-5.14-5.29-10.29-8-15.58,2.12-.17,4.31.12,5.59-1.93a6.66,6.66,0,0,0,.81-4.74c-.52-3-2.95-4.32-7.3-3.87v1.12q0,10,0,20c0,3,.73,4.1,3.63,5.39H208.47c.12-.13.21-.32.35-.37,1.7-.6,1.91-1.85,1.89-3.48-.09-6.44,0-12.88,0-19.31V19.76h5c0-.11.08-.21.13-.32l-7.55-4.66a6.47,6.47,0,0,1,.92-.12c4.16,0,8.32-.14,12.47.1a18.05,18.05,0,0,1,6,1.48,6.32,6.32,0,0,1,4,6.15,7.22,7.22,0,0,1-3.94,6.77c-.62.35-1.29.6-2,.95l1.76,3.12c1.2,2.12,2.38,4.25,3.61,6.35,1,1.71,1.65,3.68,3.7,4.58Z"/><path class="cls-1" d="M286.77,0H251.89a5.17,5.17,0,0,0-5.18,5.18v53a5.18,5.18,0,0,0,5.18,5.18h34.88A5.18,5.18,0,0,0,292,58.16v-53A5.18,5.18,0,0,0,286.77,0ZM263.9,44.37c.13-.16.22-.35.36-.4,1.68-.6,1.91-1.85,1.89-3.48-.09-7.48-.07-15,0-22.43,0-1.28-.24-2.15-1.47-2.63a6.79,6.79,0,0,1-1.06-.73h11.17c-.09.17-.11.33-.19.35-2,.66-2.1,2.15-2.08,4,.09,7.36.07,14.72,0,22.07,0,1.28.25,2.15,1.47,2.63a6.21,6.21,0,0,1,.95.66Z"/><path class="cls-1" d="M322.87,19.42c1.31,1.64,1.51,5.38.35,7.42-1.47,2.56-3.93,2.29-6.42,2.21V17.93C318.78,17.29,321.76,18,322.87,19.42Z"/><path class="cls-1" d="M336.11,0H301.23a5.17,5.17,0,0,0-5.18,5.18v53a5.18,5.18,0,0,0,5.18,5.18h34.88a5.18,5.18,0,0,0,5.18-5.18v-53A5.18,5.18,0,0,0,336.11,0ZM324.47,31.54c-2.25.75-4.43,1.07-6.37-.78a5.63,5.63,0,0,0-.91-.58.81.81,0,0,0-.22-.07c-.06,0-.17.09-.18.14,0,3.19-.08,6.39,0,9.59a4.72,4.72,0,0,0,3.33,4.54H308.23l-.34-.34a4,4,0,0,0,.6-.1c1.67-.59,1.92-1.83,1.9-3.47-.1-6.4,0-12.8,0-19.2V19.71h4.93c0-.1.05-.19.08-.29L308.11,15c0-.14.06-.28.1-.42,5,.13,10,0,14.93.44,4.8.42,7.54,3.33,7.91,7.55S328.88,30.08,324.47,31.54Z"/></g></g></svg>